# xmcd CD database file
#
# Track frame offsets:
#	150
#	23212
#	37805
#	51289
#	66132
#	77750
#	92510
#	111787
#	131033
#	148955
#	166688
#	183801
#	198487
#	211577
#	227452
#	240589
#	273932
#	300094
#
# Disc length: 4480 seconds
#
# Revision: 0
# Processed by: cddbd v1.5.2PL0 Copyright (c) Steve Scherf et al.
# Submitted via: CDex 1.70beta2
#
DISCID=e0117e12
DTITLE=Eric Clapton Live 90 - Kindhearted Woman Blues RAH 5, Mar 94
DYEAR=1994
DGENRE=Blues
TTITLE0=Terraplane Blues
TTITLE1=Kindhearted Woman Blues
TTITLE2=Malted Milk
TTITLE3=How Long
TTITLE4=Kidman Blues
TTITLE5=Country Jail Blues
TTITLE6=Forty Four
TTITLE7=Standing Ande Crying
TTITLE8=Goin7 Away Baby
TTITLE9=Blues All Day Long
TTITLE10=Hoochie Coochie Man
TTITLE11=It Hurt Me Too
TTITLE12=Blues Before Sunrise
TTITLE13=Someday After A While
TTITLE14=Tore Down
TTITLE15=White Room
TTITLE16=Badge
TTITLE17=Wonderful Tonight
EXTD=YEAR: 1994
EXTT0=
EXTT1=
EXTT2=
EXTT3=
EXTT4=
EXTT5=
EXTT6=
EXTT7=
EXTT8=
EXTT9=
EXTT10=
EXTT11=
EXTT12=
EXTT13=
EXTT14=
EXTT15=
EXTT16=
EXTT17=
PLAYORDER=
